# xmcd CD database file
#
# Track frame offsets:
#	150
#	13897
#	28957
#	44437
#	60807
#	74710
#	91250
#	109992
#	129547
#	146855
#	159717
#	175687
#	189835
#	205015
#	221062
#	234787
#	247665
#	261825
#
# Disc length: 3692 seconds
#
# Revision: 1
# Processed by: cddbd v1.5.2PL0 Copyright (c) Steve Scherf et al.
# Submitted via: CDex 1.51
#
DISCID=fe0e6a12
DTITLE=Laura Fygi - Latin Touch
DYEAR=2000
DGENRE=Jazz
TTITLE0=Como Fue
TTITLE1=Perfidia
TTITLE2=Quizas,Quizas,Quizas
TTITLE3=Noche De Ronda
TTITLE4=Piel Canela
TTITLE5=La Puelta
TTITLE6=Abrazame
TTITLE7=Dimelo
TTITLE8=La Mentira
TTITLE9=Solamente Una Vez
TTITLE10=Historia De Un Amor
TTITLE11=Amor
TTITLE12=Cuando Vuelva A Tu Lado
TTITLE13=Capulito De Aleli
TTITLE14=Besame Mucho
TTITLE15=You Belong My Heart
TTITLE16=Amor (English Version)
TTITLE17=What A Difference A Day Makes
EXTD=YEAR: 2000
EXTT0=
EXTT1=
EXTT2=
EXTT3=
EXTT4=
EXTT5=
EXTT6=
EXTT7=
EXTT8=
EXTT9=
EXTT10=
EXTT11=
EXTT12=
EXTT13=
EXTT14=
EXTT15=
EXTT16=
EXTT17=
PLAYORDER=
